<svg version="1" xmlns="http://www.w3.org/2000/svg" width="1066.667" height="1066.667" viewBox="0 0 800.000000 800.000000"><path d="M253.4 34.6c-2.1 1.4-4.9 4.1-6.2 6-2.3 3.5-2.9 8.8-1.2 9.9.6.4.8 1 .5 1.5-.3.5 9.6 11.1 22 23.6L291 98.2l-4.8 3.6c-5.4 4.1-15.4 12.5-19.1 16.2-5.3 5.1-17.3 19.3-18.3 21.6-.6 1.3-1.4 2.4-1.8 2.4-.8 0-8.5 12.9-12.8 21.5-3.7 7.5-8.3 19.1-9.8 25-.2.5-1.2 4.4-2.3 8.5-1.1 4.1-1.8 7.6-1.6 7.8.2.2 0 1.5-.6 2.9-.9 2.4-1.8 8.1-2.4 15.8-.1 2.2-.4 4-.5 4-.1 0-.2 4.2-.4 9.2-.1 5.8.2 9.3.9 9.4 4.6.4 17.5 0 18.4-.5.6-.4 1.1-.3 1.1.1 0 1 13.4.8 15-.2.5-.3 1-.3 1 .2 0 .9 21.4.8 22.9-.2.6-.3 1.1-.3 1.1.2 0 .9 44.1.9 46.5 0 .8-.4 1.5-.3 1.5.1 0 .8 44.2.7 46.5-.1.8-.4 1.5-.3 1.5.1 0 .8 44.2.7 46.5-.1.8-.4 1.5-.3 1.5.1 0 .8 44.2.7 46.5-.1.8-.4 1.5-.3 1.5.1 0 .8 44.2.7 46.5-.1.8-.4 1.5-.3 1.5.1 0 .8 44.2.7 46.5-.1.8-.4 1.5-.3 1.5.1 0 .9 10.8.8 11.6-.1.3-.3 1.8-.2 3.3.3 1.6.4 3.2.5 3.7.1.9-.6 1.3-9.1.4-9.1-.3 0-.5-2.4-.6-5.3-.1-4.8-.5-9.1-1.9-19.2-.6-4.5-1.3-8-1.5-8-.1 0-.4-1.6-.7-3.5-.2-1.9-.9-3.7-1.4-3.8-.5-.2-.7-.8-.4-1.2 1.3-2.2-13.1-37.8-15.6-38.8-.5-.2-.7-.7-.4-1.2.3-.4-.2-1.3-1-2s-1.5-1.8-1.5-2.4c0-.7-.8-2.1-1.7-3.2-1-1-3.1-3.9-4.8-6.4-1.6-2.5-3.2-4.7-3.5-5-.3-.3-3-3.4-6-7-5.8-6.9-20-21-21.2-21-.3 0-1.9-1.2-3.5-2.8-1.5-1.5-4.1-3.5-5.6-4.5s-3-2.4-3.3-3.1c-.3-.8 7.6-9.5 19.4-21.2 11-11 20.9-21.5 22.1-23.4 4-6.7 1.8-14.9-5.4-19.9-3.5-2.4-9.9-2.8-14.1-.9-1.5.7-13.4 12-26.5 25C491.8 71.3 480.8 82 480.5 82c-.3 0-3.7-1.6-7.6-3.5-6.7-3.4-27.6-10.9-32.9-11.9-4.4-.7-10.4-1.9-12.5-2.3-11.4-2.3-42-2.2-56.5.2-1.9.4-4.4.8-5.5 1-4.8.7-16.1 3.8-17.1 4.6-.6.5-1.3.6-1.6.3-.3-.2-2.3.3-4.4 1.2-2.2.9-4.8 2-5.9 2.4-1.1.4-5.7 2.4-10.1 4.5l-8.1 3.8-22.4-22.4c-12.4-12.3-23.9-23.6-25.7-25.2-4.5-3.7-11.2-3.8-16.8-.1zm61.1 120.6c.4 0 1.2-.6 1.6-1.4.5-.7.9-.8.9-.2 0 1.4 3 1.4 3 0 0-.6.4-.5.9.2.4.8 1.2 1.4 1.6 1.4.4 0 1.2-.6 1.6-1.4.5-.7.9-.8.9-.2 0 .7 2 1 5.3.8 8.6-.5 8.2-1.1 8 13.8-.1 7.3-.2 14.3-.2 15.5-.1 2.1-.5 2.2-6.4 2.1-3.5-.1-6.8.2-7.5.6-.7.4-1.2.4-1.2-.1 0-.4-3.3-.8-7.2-.8h-7.3v-15.8c0-14.6.1-15.8 1.7-15.3 1 .2 1.8-.1 1.8-.7 0-.8.3-.7.9.1.4.8 1.2 1.4 1.6 1.4zm177-1.2c-.3.5-.3 1 .2 1 .4 0 .8 6.9.8 15.3v15.4h-15.2l-15.3.1-.1-7.9V164v-7.8c.1-1.7 1.2-1.9 14.2-1.8 7.7.1 14.3-.2 14.6-.7.2-.4.6-.7.9-.7.3 0 .2.4-.1 1zM136.8 277.5c-.2.3-2.4.8-4.8 1.1-9.6 1.4-21.4 8.7-29.1 18.1-2.5 3.1-6.7 12.4-7.8 17.3-.7 2.9-1 44.4-.8 119.5l.2 115 2.7 6.7c1.5 3.7 3.3 7.5 4 8.4 11.2 13.6 21.4 19.2 36.4 19.9 13.9.7 24.7-3.3 34.6-12.7 3.1-2.9 6.8-7.5 8.2-10.1 5.7-10.5 5.6-7.3 5.6-130.9 0-109.1-.1-113.9-2-119.2-2.1-6.3-6.8-14.6-8.1-14.6-.5 0-.9-.5-.9-1 0-3.2-15.7-14.1-22.3-15.4-1.5-.3-3.9-.9-5.4-1.2-1.5-.3-2.9-.7-3.1-.9-.2-.2-1.4 0-2.7.5-1.3.5-2.6.5-3.2-.1-.5-.5-1.2-.7-1.5-.4zM216.8 277.8c-1.3.2-1.6.8-1 2 1 2.1.9 15.2-.1 16.9-.4.6-.4 1.4.1 1.7.9.5.9 12.7-.1 14.2-.3.6-.3 1.4.1 1.8 1.1 1.2.9 17.6-.3 17.6-.7 0-.7.3 0 .8 1.4 1 1.5 12.2.1 12.2-.7 0-.8.3-.1.8 1.4.9 1.4 17.5 0 18.4-.7.5-.7.8 0 .8 1.4 0 1.4 11.3.1 12.2-.7.5-.7.8-.1.8 1.2 0 1.3 12.9.2 14.7-.4.6-.4 1.4.1 1.7.9.6.9 12.7-.1 14.3-.4.6-.4 1.4.1 1.7.7.4.8 10.1.2 11.6-.1.3-.1.9 0 1.5.9 3 .4 20.5-.5 20.5-.7 0-.7.3 0 .8 1.4 1 1.4 11.5.1 12.4-.7.5-.7.8-.1.8 1.2 0 1.3 10.5.2 11.6-.3.4-.3 1.4.1 2.3 1 2 .9 15.2-.1 16.8-.4.6-.4 1.4.1 1.7.9.6.9 12.7-.1 14.3-.4.6-.4 1.4.1 1.7.7.4.8 10.1.2 11.6-.1.3-.1.9 0 1.5.9 3 .4 20.5-.5 20.5-.7 0-.7.3 0 .8 1.4 1 1.4 11.5.1 12.4-.7.5-.7.8-.1.8.9 0 1.3 10.2.5 12-.1.3-.1.9 0 1.5.8 3.2.5 8.5-.4 8.5-.7 0-.7.3-.1.8.6.4 1.1 4.3 1.2 8.7.1 4.5.7 8.1 1.3 8.3.5.2.8.8.5 1.2-.7 1.2 3.5 7.8 7.1 11.2 3.7 3.3 9.1 6.4 13.2 7.2 4.3 1 19.6 1.1 21 .2.7-.4 1.2-.3 1.2.1 0 .5 3.8.8 8.4.7l8.5-.3.3 59.2c.3 52.7.5 59.7 2 63.4 1 2.4 1.4 4.3 1 4.3-.4 0 .1.5 1.1 1.1.9.5 1.7 1.9 1.7 2.9 0 1.1.5 2 1.2 2 .6 0 .8.3.5.7-1.3 1.2 11.5 12.4 17.7 15.3 13.8 6.7 29.2 6.3 43.4-.9 5.4-2.7 14.2-11.3 17.5-17.1 5.5-9.5 5.7-11.7 5.6-69.4 0-29.2 0-55 .1-57.3 0-4 .1-4.1 3.3-3.9 1.7.1 4.2-.2 5.5-.6 1.2-.4 2.2-.4 2.2 0 0 .9 21.5.6 22.9-.3.6-.3 1.1-.3 1.1.2 0 .4 5.6.7 12.5.7l12.5-.2v7.1c.1 4 .1 28.8.1 55.2.1 26.4.5 50.7 1.1 54 .5 3.3 2.2 8.7 3.9 12 3.1 6.4 9.8 14.5 12 14.5.7 0 .9.3.6.7-.4.3.3 1.1 1.6 1.8 1.2.7 3.9 2.1 5.9 3.3 7.7 4.4 20.8 6.2 30.6 4.1 5.8-1.1 16.4-5.8 19.2-8.5 8.9-8.3 11.4-11.6 14.3-19.2 2.7-6.9 3-12.1 3.1-69.7l.1-55 3.7-.1c2-.1 4.4-.4 5.2-.7.9-.4 1.6-.3 1.6.1s5.5.6 12.2.5c6.8-.1 12.3-.2 12.3-.3 0-.1 1.5-.3 3.3-.6 3.5-.4 8.1-2.5 12.4-5.7 2.8-2 9.4-10.7 8.2-10.7-.3 0-.1-.6.5-1.3.6-.8 1.2-2.7 1.4-4.3.2-1.7.5-3.4.8-3.9.4-.8.4-306.7 0-309.9-.1-.5-.8-.3-1.6.4s-1.5.9-1.5.4c0-1.1-51.2-1-52.8 0-.7.4-1.2.3-1.2-.2s-.7-.9-1.5-.9-1.5.5-1.5 1.1c0 .7-.3.8-.8.1-.9-1.3-19.2-1.3-19.2 0 0 .5-.4.4-.9-.3-1.1-1.7-2.1-1.7-3.2 0-.5.7-.9.8-.9.3 0-1.2-65-1.2-66.9-.1-.6.4-1.1.3-1.1-.2s-.7-.9-1.5-.9-1.5.5-1.5 1.1c0 .7-.3.8-.8.1-.9-1.3-19.2-1.3-19.2 0 0 .5-.4.4-.9-.3-.4-.8-1.2-1.4-1.6-1.4-.4 0-1.2.6-1.6 1.4-.5.7-.9.8-.9.3 0-1.2-65-1.2-66.9-.1-.6.4-1.1.3-1.1-.2s-.7-.9-1.5-.9-1.5.5-1.5 1.1c0 .7-.3.8-.8.1-.9-1.3-18.5-1.3-19.4 0-.5.6-.8.6-.8-.1 0-.6-.7-1.1-1.5-1.1s-1.5.5-1.5 1.1c0 .7-.3.7-.8.1-.4-.6-10.2-1-25.7-1s-25.3.4-25.7 1c-.5.6-.8.6-.8-.1 0-.6-.7-1.1-1.5-1.1s-1.5.5-1.5 1.1c0 .7-.3.8-.8.1-.9-1.3-18.5-1.3-19.4 0-.5.6-.8.6-.8-.1 0-.6-.7-1.1-1.5-1.1s-1.5.5-1.5 1.1c0 .6-.4.5-.9-.2-.4-.8-1.2-1.4-1.6-1.4-.4 0-1.2.6-1.6 1.4-.5.7-.9.8-.9.2 0-1.4-3-1.4-3 0 0 .8-.3.8-.8.1-.4-.6-1.5-.9-2.4-.7zM657 278c-.8.5-1.7.7-2.2.4-1.2-.8-11.4 2.5-16.2 5.2-2.4 1.3-6 4-7.9 5.8-2 1.9-3.8 3.1-4.1 2.8-.4-.3-.6.2-.6 1.1 0 .9-.4 1.7-1 1.7-1.6 0-7.9 12.4-9.3 18.5-1.1 4.9-1.3 26.5-1.2 120l.2 114 2.2 6c4.1 11.4 10.8 19 22.3 25.4 9.8 5.4 27.5 6.4 37.8 2.1 5.2-2.2 13.6-7.7 17.1-11.1 2.3-2.3 7.2-9.9 8.8-13.4 3.5-8.2 3.7-14 3.5-128-.1-110.2-.2-112.1-2.2-118.3-1.1-3.5-3.3-8.2-4.8-10.5-7.3-10.8-20.6-20-30.8-21.1-2.1-.3-4-.7-4.3-1-.3-.2-1.6-.1-2.8.4-1.4.5-2.5.5-2.7 0-.2-.6-.9-.6-1.8 0z"/></svg>